<svg width="228" height="62" viewBox="0 0 228 62" fill="none" xmlns="http://www.w3.org/2000/svg">
<path d="M99.0596 31.2886V30.8557C99.0596 29.2205 99.2932 27.7159 99.7603 26.3418C100.227 24.9539 100.907 23.7516 101.8 22.7347C102.693 21.7179 103.792 20.9277 105.098 20.3644C106.403 19.7872 107.9 19.4987 109.59 19.4987C111.28 19.4987 112.784 19.7872 114.103 20.3644C115.422 20.9277 116.528 21.7179 117.421 22.7347C118.328 23.7516 119.014 24.9539 119.482 26.3418C119.949 27.7159 120.182 29.2205 120.182 30.8557V31.2886C120.182 32.91 119.949 34.4147 119.482 35.8025C119.014 37.1766 118.328 38.379 117.421 39.4096C116.528 40.4264 115.429 41.2165 114.124 41.7799C112.819 42.3433 111.321 42.625 109.631 42.625C107.941 42.625 106.437 42.3433 105.118 41.7799C103.813 41.2165 102.707 40.4264 101.8 39.4096C100.907 38.379 100.227 37.1766 99.7603 35.8025C99.2932 34.4147 99.0596 32.91 99.0596 31.2886ZM104.995 30.8557V31.2886C104.995 32.223 105.077 33.0955 105.242 33.9062C105.407 34.717 105.668 35.4315 106.025 36.0499C106.396 36.6545 106.877 37.1285 107.467 37.4721C108.058 37.8156 108.779 37.9874 109.631 37.9874C110.456 37.9874 111.163 37.8156 111.754 37.4721C112.345 37.1285 112.819 36.6545 113.176 36.0499C113.533 35.4315 113.794 34.717 113.959 33.9062C114.137 33.0955 114.227 32.223 114.227 31.2886V30.8557C114.227 29.9488 114.137 29.0969 113.959 28.2999C113.794 27.4891 113.526 26.7746 113.155 26.1562C112.798 25.5242 112.324 25.0295 111.733 24.6722C111.142 24.3149 110.428 24.1363 109.59 24.1363C108.752 24.1363 108.038 24.3149 107.447 24.6722C106.87 25.0295 106.396 25.5242 106.025 26.1562C105.668 26.7746 105.407 27.4891 105.242 28.2999C105.077 29.0969 104.995 29.9488 104.995 30.8557Z" fill="#1D04F2"/>
<path d="M129.765 24.7753V42.2128H123.83V19.9109H129.414L129.765 24.7753ZM136.483 19.7666L136.38 25.2699C136.091 25.2287 135.741 25.1944 135.329 25.1669C134.93 25.1257 134.566 25.1051 134.236 25.1051C133.398 25.1051 132.67 25.215 132.052 25.4348C131.448 25.641 130.939 25.9501 130.527 26.3624C130.129 26.7746 129.826 27.2762 129.62 27.867C129.428 28.4579 129.318 29.1312 129.291 29.887L128.095 29.516C128.095 28.0731 128.24 26.7471 128.528 25.5379C128.817 24.3149 129.236 23.25 129.785 22.3431C130.349 21.4362 131.035 20.7354 131.846 20.2407C132.657 19.746 133.584 19.4987 134.628 19.4987C134.958 19.4987 135.294 19.5262 135.638 19.5811C135.981 19.6223 136.263 19.6842 136.483 19.7666Z" fill="#1D04F2"/>
<path d="M152.041 37.3484V10.5532H158.017V42.2128H152.639L152.041 37.3484ZM137.946 31.3298V30.8969C137.946 29.193 138.138 27.6472 138.523 26.2593C138.907 24.8577 139.471 23.6554 140.213 22.6523C140.954 21.6492 141.868 20.8728 142.953 20.3231C144.039 19.7735 145.275 19.4987 146.663 19.4987C147.968 19.4987 149.108 19.7735 150.084 20.3231C151.073 20.8728 151.911 21.656 152.598 22.6729C153.298 23.676 153.862 24.8646 154.287 26.2387C154.713 27.5991 155.022 29.09 155.215 30.7114V31.6596C155.022 33.2123 154.713 34.6551 154.287 35.988C153.862 37.3209 153.298 38.4889 152.598 39.492C151.911 40.4814 151.073 41.2509 150.084 41.8005C149.094 42.3502 147.94 42.625 146.621 42.625C145.234 42.625 143.997 42.3433 142.912 41.7799C141.841 41.2165 140.934 40.4264 140.192 39.4096C139.464 38.3927 138.907 37.1973 138.523 35.8231C138.138 34.449 137.946 32.9512 137.946 31.3298ZM143.881 30.8969V31.3298C143.881 32.2504 143.949 33.1093 144.087 33.9062C144.238 34.7032 144.478 35.4109 144.808 36.0293C145.151 36.6339 145.591 37.1079 146.127 37.4515C146.676 37.7812 147.343 37.9461 148.126 37.9461C149.142 37.9461 149.98 37.7194 150.64 37.266C151.299 36.7988 151.801 36.1598 152.144 35.3491C152.501 34.5383 152.708 33.6039 152.762 32.5459V29.8457C152.721 28.9801 152.598 28.2037 152.392 27.5166C152.199 26.8158 151.911 26.2181 151.526 25.7234C151.155 25.2287 150.688 24.844 150.125 24.5691C149.575 24.2943 148.923 24.1569 148.167 24.1569C147.398 24.1569 146.738 24.3355 146.189 24.6928C145.639 25.0363 145.193 25.5104 144.849 26.115C144.52 26.7196 144.272 27.4342 144.107 28.2586C143.956 29.0694 143.881 29.9488 143.881 30.8969Z" fill="#1D04F2"/>
<path d="M172.916 42.625C171.185 42.625 169.633 42.3502 168.259 41.8005C166.885 41.2371 165.718 40.4608 164.756 39.4714C163.808 38.482 163.08 37.3347 162.572 36.0293C162.063 34.7101 161.809 33.3085 161.809 31.8245V31C161.809 29.3098 162.05 27.764 162.53 26.3624C163.011 24.9608 163.698 23.7447 164.591 22.7141C165.498 21.6835 166.597 20.8934 167.888 20.3437C169.18 19.7804 170.636 19.4987 172.257 19.4987C173.837 19.4987 175.238 19.7598 176.461 20.2819C177.684 20.8041 178.707 21.5461 179.531 22.508C180.369 23.4699 181.001 24.6241 181.427 25.9707C181.853 27.3036 182.066 28.7877 182.066 30.4229V32.8963H164.344V28.9388H176.234V28.4854C176.234 27.6609 176.083 26.9258 175.781 26.2799C175.492 25.6203 175.053 25.0982 174.462 24.7134C173.871 24.3287 173.116 24.1363 172.195 24.1363C171.412 24.1363 170.739 24.3081 170.176 24.6516C169.612 24.9951 169.152 25.4761 168.795 26.0944C168.452 26.7128 168.191 27.441 168.012 28.2793C167.847 29.1037 167.765 30.0106 167.765 31V31.8245C167.765 32.7176 167.888 33.5421 168.136 34.2979C168.397 35.0536 168.761 35.7063 169.228 36.256C169.709 36.8056 170.286 37.2316 170.959 37.5339C171.646 37.8362 172.422 37.9874 173.287 37.9874C174.359 37.9874 175.355 37.7812 176.275 37.369C177.21 36.943 178.013 36.3041 178.687 35.4521L181.572 38.5851C181.104 39.2584 180.466 39.9043 179.655 40.5226C178.858 41.141 177.897 41.6494 176.77 42.0479C175.644 42.4326 174.359 42.625 172.916 42.625Z" fill="#1D04F2"/>
<path d="M191.257 24.6722V42.2128H185.322V19.9109H190.886L191.257 24.6722ZM190.392 30.2786H188.784C188.784 28.6297 188.997 27.1456 189.423 25.8265C189.849 24.4936 190.446 23.3599 191.216 22.4255C191.985 21.4774 192.899 20.756 193.957 20.2613C195.028 19.7529 196.223 19.4987 197.542 19.4987C198.586 19.4987 199.541 19.6498 200.407 19.9521C201.272 20.2544 202.014 20.7354 202.632 21.3949C203.264 22.0545 203.745 22.9271 204.075 24.0126C204.418 25.0982 204.59 26.4242 204.59 27.9907V42.2128H198.614V27.9701C198.614 26.9807 198.476 26.2112 198.202 25.6616C197.927 25.1119 197.522 24.7272 196.986 24.5073C196.464 24.2737 195.818 24.1569 195.049 24.1569C194.252 24.1569 193.558 24.3149 192.967 24.631C192.39 24.947 191.91 25.3867 191.525 25.9501C191.154 26.4998 190.872 27.1456 190.68 27.8876C190.488 28.6297 190.392 29.4266 190.392 30.2786Z" fill="#1D04F2"/>
<path d="M221.138 37.1835V27.2487C221.138 26.5341 221.021 25.9226 220.787 25.4142C220.554 24.8921 220.19 24.4867 219.695 24.1981C219.214 23.9096 218.589 23.7653 217.82 23.7653C217.161 23.7653 216.59 23.8821 216.11 24.1157C215.629 24.3355 215.258 24.6585 214.997 25.0844C214.736 25.4967 214.605 25.9845 214.605 26.5479H208.67C208.67 25.5997 208.89 24.6997 209.33 23.8477C209.769 22.9958 210.408 22.2469 211.246 21.6011C212.084 20.9415 213.08 20.4262 214.234 20.0552C215.402 19.6842 216.707 19.4987 218.15 19.4987C219.881 19.4987 221.419 19.7872 222.766 20.3644C224.112 20.9415 225.17 21.8072 225.939 22.9614C226.722 24.1157 227.114 25.5585 227.114 27.2899V36.8331C227.114 38.0561 227.189 39.0592 227.341 39.8424C227.492 40.6119 227.711 41.2852 228 41.8624V42.2128H222.003C221.715 41.6082 221.495 40.8524 221.344 39.9455C221.206 39.0248 221.138 38.1042 221.138 37.1835ZM221.921 28.6297L221.962 31.9894H218.644C217.861 31.9894 217.181 32.0787 216.604 32.2573C216.027 32.4359 215.553 32.6902 215.182 33.0199C214.811 33.336 214.537 33.707 214.358 34.133C214.193 34.559 214.111 35.0262 214.111 35.5346C214.111 36.043 214.227 36.5033 214.461 36.9156C214.694 37.3141 215.031 37.6301 215.471 37.8637C215.91 38.0836 216.426 38.1935 217.016 38.1935C217.909 38.1935 218.685 38.0148 219.345 37.6576C220.004 37.3003 220.513 36.8606 220.87 36.3384C221.241 35.8163 221.433 35.3216 221.447 34.8544L223.013 37.369C222.793 37.9324 222.491 38.5164 222.106 39.121C221.735 39.7256 221.261 40.2959 220.684 40.8318C220.107 41.3539 219.414 41.7868 218.603 42.1303C217.792 42.4601 216.831 42.625 215.718 42.625C214.303 42.625 213.018 42.3433 211.864 41.7799C210.724 41.2028 209.817 40.4127 209.144 39.4096C208.485 38.3927 208.155 37.2385 208.155 35.9468C208.155 34.7788 208.375 33.7414 208.815 32.8344C209.254 31.9275 209.9 31.1649 210.752 30.5465C211.617 29.9144 212.696 29.4404 213.987 29.1243C215.278 28.7945 216.776 28.6297 218.479 28.6297H221.921Z" fill="#1D04F2"/>
<path d="M53.6957 31C53.6957 48.1208 41.6755 62 26.8478 62C12.0203 62 0 48.1208 0 31C0 13.8792 12.0203 0 26.8478 0C41.6755 0 53.6957 13.8792 53.6957 31Z" fill="#4E1BC5"/>
<path d="M82.6493 31C82.6493 48.1208 70.7467 62 56.0645 62C41.3823 62 29.4799 48.1208 29.4799 31C29.4799 13.8792 41.3823 0 56.0645 0C70.7467 0 82.6493 13.8792 82.6493 31Z" fill="#2308EF"/>
<path d="M41.528 56.9595C48.855 51.424 53.6957 41.8649 53.6957 31C53.6957 20.1354 48.855 10.576 41.528 5.04065C34.273 10.576 29.4799 20.1354 29.4799 31C29.4799 41.8649 34.273 51.424 41.528 56.9595Z" fill="white"/>
</svg>
